<svg width="152" height="152" viewBox="0 0 152 152" fill="none" xmlns="http://www.w3.org/2000/svg">
<path d="M61.75 9.5C57.9707 9.5 54.3461 11.0013 51.6737 13.6737C49.0013 16.3461 47.5 19.9707 47.5 23.75V28.5H14.25C10.4707 28.5 6.84612 30.0013 4.17373 32.6737C1.50133 35.3461 0 38.9707 0 42.75L0 55.898L72.333 75.183C74.7358 75.8229 77.2642 75.8229 79.667 75.183L152 55.898V42.75C152 38.9707 150.499 35.3461 147.826 32.6737C145.154 30.0013 141.529 28.5 137.75 28.5H104.5V23.75C104.5 19.9707 102.999 16.3461 100.326 13.6737C97.6539 11.0013 94.0293 9.5 90.25 9.5H61.75ZM61.75 19H90.25C91.5098 19 92.718 19.5004 93.6088 20.3912C94.4996 21.282 95 22.4902 95 23.75V28.5H57V23.75C57 22.4902 57.5004 21.282 58.3912 20.3912C59.282 19.5004 60.4902 19 61.75 19Z" fill="#E33244"/>
<path d="M0 118.75C0 122.529 1.50133 126.154 4.17373 128.826C6.84612 131.499 10.4707 133 14.25 133H137.75C141.529 133 145.154 131.499 147.826 128.826C150.499 126.154 152 122.529 152 118.75V65.075L77.2255 84.9965C76.4226 85.2109 75.5774 85.2109 74.7745 84.9965L0 65.075V118.75Z" fill="#020552"/>
</svg>
